<svg xmlns="http://www.w3.org/2000/svg" width="720" height="190" viewBox="0 0 720 190" role="img" aria-labelledby="title desc">
<title id="title">Shree Sakhi</title><desc id="desc">Two embracing speech petals surrounding a spark, followed by Shree Sakhi wordmark.</desc>
<defs><linearGradient id="petal" x1="10" y1="10" x2="140" y2="145" gradientUnits="userSpaceOnUse"><stop stop-color="#8653E9"/><stop offset="1" stop-color="#EF65A5"/></linearGradient></defs>
<path d="M81 22C48 22 23 46 23 79c0 36 24 55 55 72-9-21-13-35-9-54 5-22 20-38 39-47C102 34 93 26 81 22Z" fill="#38235F"/>
<path d="M96 25c35 2 61 26 61 59 0 35-23 54-56 71 10-23 12-39 6-57-7-21-22-36-41-44 7-17 17-26 30-29Z" fill="url(#petal)"/>
<path d="M90 60c4 13 10 19 23 23-13 4-19 10-23 23-4-13-10-19-23-23 13-4 19-10 23-23Z" fill="#FFDA85"/>
<circle cx="132" cy="39" r="4" fill="#EF65A5"/><circle cx="49" cy="125" r="3" fill="#9466E9"/>
<text x="182" y="112" font-family="Nunito, Avenir Next, Arial Rounded MT Bold, sans-serif" font-size="66" font-weight="800" letter-spacing="-3" fill="#38235F">Shree <tspan fill="#BC4B9F">Sakhi</tspan></text>
</svg>
